<svg width="177" height="198"><defs id="SvgjsDefs1047"></defs><g id="main_text" rel="mainfill" name="main_text" feature="main_text" xmlns:name="mainText_mainfill" groupname="main_text" fill="#ffffff" transform="translate(0.000008392008678083651, -156.8689587682596) scale(12.799503842371262)"><path d="M0.24 13.26 q0 -0.18 0.1 -0.21 t0.21 0.01 t0.22 0.13 t0.15 0.13 q0.04 0.52 -0.04 1.42 t-0.08 2.24 q0.08 -0.32 0.24 -0.76 t0.37 -0.89 t0.46 -0.84 t0.49 -0.62 t0.46 -0.23 t0.4 0.34 q0.04 0.1 0.07 0.41 t0.04 0.75 t0.03 0.98 t0.06 1.1 q0.18 -0.44 0.41 -0.97 t0.49 -0.96 t0.56 -0.67 t0.64 -0.1 q0.16 0.06 0.22 0.37 t0.1 0.73 t0.09 0.89 t0.19 0.85 t0.4 0.61 t0.7 0.17 q0.24 0 0.35 0.01 t0.16 0.03 t0.04 0.06 t-0.01 0.12 q-0.74 0.38 -1.21 0.25 t-0.74 -0.56 t-0.38 -1.04 t-0.15 -1.21 q-0.04 -0.26 -0.17 -0.22 t-0.32 0.3 t-0.41 0.65 t-0.42 0.83 t-0.35 0.85 t-0.23 0.67 q-0.1 0.18 -0.32 0.1 t-0.28 -0.3 q-0.08 -0.32 -0.09 -0.79 t0 -0.95 t0.03 -0.93 t0 -0.77 t-0.08 -0.44 t-0.22 0.06 q-0.34 0.52 -0.63 1.18 t-0.51 1.37 t-0.37 1.42 t-0.19 1.29 q-0.34 0.08 -0.48 -0.09 t-0.24 -0.35 q0.04 -0.26 0.07 -1.01 t0.06 -1.71 t0.06 -1.96 t0.05 -1.74 z M13.84 17.82 q0.04 0.04 -0.01 0.14 t-0.14 0.22 t-0.18 0.23 t-0.13 0.15 q-0.48 0.54 -0.86 0.93 t-0.62 0.67 q0 0.02 -0.01 0.23 t-0.01 0.23 q-0.04 0.68 -0.03 1.37 t-0.09 1.39 q-0.12 0.8 -0.25 1.29 t-0.27 0.8 t-0.29 0.52 t-0.33 0.47 q-0.16 0.22 -0.36 0.38 t-0.54 0.38 q-0.46 0.28 -0.96 0.42 t-0.92 0.05 t-0.71 -0.45 t-0.33 -1.08 q-0.04 -0.8 0.28 -1.58 t0.76 -1.42 t0.86 -1.08 t0.58 -0.6 q0.26 -0.28 0.47 -0.48 t0.43 -0.37 t0.47 -0.37 t0.59 -0.48 q0.08 -0.48 0.1 -1.01 t0 -1.09 q-0.36 0.74 -0.77 1.16 t-0.74 0.63 t-0.54 0.26 t-0.17 0.05 q-0.38 0.06 -0.61 0.03 t-0.36 -0.12 t-0.2 -0.21 t-0.11 -0.24 q-0.1 -0.52 0.01 -1.07 t0.33 -1.05 t0.48 -0.92 t0.48 -0.68 q0.04 -0.04 0.19 -0.21 t0.39 -0.38 t0.59 -0.43 t0.81 -0.4 q0.46 -0.1 0.94 -0.09 t0.78 0.23 q-0.16 0.06 -0.49 0.15 t-0.43 0.13 l0 0.04 q0 0.06 0.04 0.06 q-0.34 -0.08 -1.06 0.28 t-1.56 1.38 q-0.38 0.54 -0.58 0.97 t-0.29 0.74 t-0.09 0.53 t0.02 0.34 q0.02 0.08 0.14 0.14 t0.3 0.02 q0.52 -0.12 0.97 -0.53 t0.82 -0.93 t0.63 -1.02 t0.38 -0.8 q0.2 -0.46 0.21 -0.85 t-0.03 -0.39 l0.03 0 l0.05 0 t0.01 0.01 t-0.13 0.03 q0.04 -0.04 0.08 -0.05 t0.08 -0.03 q-0.02 -0.02 0.01 -0.05 t0.07 -0.03 q0 -0.04 0.1 -0.08 l0.12 -0.04 l0.06 -0.04 q0.08 -0.04 0.1 -0.06 t0.05 -0.02 t0.11 0.03 t0.28 0.09 q-0.18 0.48 -0.31 1.17 t-0.23 1.39 t-0.17 1.33 t-0.13 0.99 q0.16 -0.16 0.47 -0.38 t0.61 -0.44 q0.36 -0.24 0.76 -0.5 z M11.32 21.28 q0.06 -0.46 -0.02 -0.56 q-0.04 -0.06 -0.1 -0.04 q-0.54 0.44 -0.88 0.74 t-0.46 0.4 q-0.96 0.9 -1.43 1.59 t-0.63 1.27 q-0.22 0.64 -0.25 1.13 t0.25 0.95 q0.5 0.38 1.09 0.15 t1.09 -0.71 q0.58 -0.66 0.94 -1.85 t0.4 -3.07 z"></path></g></svg>